# xmcd
#
# Track frame offsets:
# 150
# 15455
# 33714
# 47690
# 62194
# 74711
# 90863
# 110952
# 125414
# 141578
# 155809
# 168513
# 187681
# 201179
# 220300
#
# Disc length: 3161 seconds
#
#
# Revision: 4
# Processed by: cddbd v1.5.1PL2 Copyright (c) Steve Scherf et al.
# Submitted via: FreeRIP 2.945 
#
DISCID=e40c570f
DTITLE=Chitãozinho and Xororó - Festa do Interior
DYEAR=2003
DGENRE=Country
TTITLE0=Festa Do Interior
TTITLE1=Eu E O Sabiá
TTITLE2=A Noite do Nosso Amor
TTITLE3=Uma Vez Por Mês
TTITLE4=O Futuro è Uma Incerteza
TTITLE5=Quem Tem Amor Tem Saudade
TTITLE6=Berrante De Ouro
TTITLE7=Pedaço De Minha Vida
TTITLE8=Explode, Coração
TTITLE9=Viola
TTITLE10=Ela Fez Minha Cabeça
TTITLE11=Estrada
TTITLE12=Rei Do Gado
TTITLE13=Encontro Casual
TTITLE14=Frete
EXTD=YEAR: 2003
EXTT0=
EXTT1=
EXTT2=
EXTT3=
EXTT4=
EXTT5=
EXTT6=
EXTT7=
EXTT8=
EXTT9=
EXTT10=
EXTT11=
EXTT12=
EXTT13=
EXTT14=
PLAYORDER=
